<?xml version="1.0" encoding="UTF-8" standalone="no"?>
<svg
   xmlns:ooo="http://xml.openoffice.org/svg/export"
   xmlns:dc="http://purl.org/dc/elements/1.1/"
   xmlns:cc="http://creativecommons.org/ns#"
   xmlns:rdf="http://www.w3.org/1999/02/22-rdf-syntax-ns#"
   xmlns:svg="http://www.w3.org/2000/svg"
   xmlns="http://www.w3.org/2000/svg"
   xmlns:sodipodi="http://sodipodi.sourceforge.net/DTD/sodipodi-0.dtd"
   xmlns:inkscape="http://www.inkscape.org/namespaces/inkscape"
   version="1.2"
   width="20.33mm"
   height="7.8800001mm"
   viewBox="0 0 2033 787.99999"
   preserveAspectRatio="xMidYMid"
   xml:space="preserve"
   id="svg3867"
   sodipodi:docname="soyboyr.svg"
   style="fill-rule:evenodd;stroke-width:28.22200012;stroke-linejoin:round"
   inkscape:version="0.92.5 (2060ec1f9f, 2020-04-08)"><metadata
   id="metadata3871"><rdf:RDF><cc:Work
       rdf:about=""><dc:format>image/svg+xml</dc:format><dc:type
         rdf:resource="http://purl.org/dc/dcmitype/StillImage" /><dc:title></dc:title></cc:Work></rdf:RDF></metadata><sodipodi:namedview
   pagecolor="#ffffff"
   bordercolor="#666666"
   borderopacity="1"
   objecttolerance="10"
   gridtolerance="10"
   guidetolerance="10"
   inkscape:pageopacity="0"
   inkscape:pageshadow="2"
   inkscape:window-width="1335"
   inkscape:window-height="845"
   id="namedview3869"
   showgrid="false"
   fit-margin-top="0"
   fit-margin-left="0"
   fit-margin-right="0"
   fit-margin-bottom="0"
   inkscape:zoom="4.4014099"
   inkscape:cx="30.436606"
   inkscape:cy="5.9250225"
   inkscape:window-x="2291"
   inkscape:window-y="86"
   inkscape:window-maximized="0"
   inkscape:current-layer="svg3867" />
 <defs
   class="ClipPathGroup"
   id="defs3799">
  <clipPath
   id="presentation_clip_path"
   clipPathUnits="userSpaceOnUse">
   <rect
   x="0"
   y="0"
   width="10610"
   height="4279"
   id="rect3793" />
  </clipPath>
  <clipPath
   id="presentation_clip_path_shrink"
   clipPathUnits="userSpaceOnUse">
   <rect
   x="10"
   y="4"
   width="10589"
   height="4271"
   id="rect3796" />
  </clipPath>
 </defs>
 <defs
   class="TextShapeIndex"
   id="defs3803">
  <g
   ooo:slide="id1"
   ooo:id-list="id3"
   id="g3801" />
 </defs>
 <defs
   class="EmbeddedBulletChars"
   id="defs3835">
  <g
   id="bullet-char-template-57356"
   transform="matrix(4.8828125e-4,0,0,-4.8828125e-4,0,0)">
   <path
   d="M 580,1141 1163,571 580,0 -4,571 Z"
   id="path3805"
   inkscape:connector-curvature="0" />
  </g>
  <g
   id="bullet-char-template-57354"
   transform="matrix(4.8828125e-4,0,0,-4.8828125e-4,0,0)">
   <path
   d="M 8,1128 H 1137 V 0 H 8 Z"
   id="path3808"
   inkscape:connector-curvature="0" />
  </g>
  <g
   id="bullet-char-template-10146"
   transform="matrix(4.8828125e-4,0,0,-4.8828125e-4,0,0)">
   <path
   d="M 174,0 602,739 174,1481 1456,739 Z M 1358,739 309,1346 659,739 Z"
   id="path3811"
   inkscape:connector-curvature="0" />
  </g>
  <g
   id="bullet-char-template-10132"
   transform="matrix(4.8828125e-4,0,0,-4.8828125e-4,0,0)">
   <path
   d="M 2015,739 1276,0 H 717 l 543,543 H 174 v 393 h 1086 l -543,545 h 557 z"
   id="path3814"
   inkscape:connector-curvature="0" />
  </g>
  <g
   id="bullet-char-template-10007"
   transform="matrix(4.8828125e-4,0,0,-4.8828125e-4,0,0)">
   <path
   d="m 0,-2 c -7,16 -16,29 -25,39 l 381,530 c -94,256 -141,385 -141,387 0,25 13,38 40,38 9,0 21,-2 34,-5 21,4 42,12 65,25 l 27,-13 111,-251 280,301 64,-25 24,25 c 21,-10 41,-24 62,-43 C 886,937 835,863 770,784 769,783 710,716 594,584 L 774,223 c 0,-27 -21,-55 -63,-84 l 16,-20 C 717,90 699,76 672,76 641,76 570,178 457,381 L 164,-76 c -22,-34 -53,-51 -92,-51 -42,0 -63,17 -64,51 -7,9 -10,24 -10,44 0,9 1,19 2,30 z"
   id="path3817"
   inkscape:connector-curvature="0" />
  </g>
  <g
   id="bullet-char-template-10004"
   transform="matrix(4.8828125e-4,0,0,-4.8828125e-4,0,0)">
   <path
   d="M 285,-33 C 182,-33 111,30 74,156 52,228 41,333 41,471 c 0,78 14,145 41,201 34,71 87,106 158,106 53,0 88,-31 106,-94 l 23,-176 c 8,-64 28,-97 59,-98 l 735,706 c 11,11 33,17 66,17 42,0 63,-15 63,-46 V 965 c 0,-36 -10,-64 -30,-84 L 442,47 C 390,-6 338,-33 285,-33 Z"
   id="path3820"
   inkscape:connector-curvature="0" />
  </g>
  <g
   id="bullet-char-template-9679"
   transform="matrix(4.8828125e-4,0,0,-4.8828125e-4,0,0)">
   <path
   d="M 813,0 C 632,0 489,54 383,161 276,268 223,411 223,592 c 0,181 53,324 160,431 106,107 249,161 430,161 179,0 323,-54 432,-161 108,-107 162,-251 162,-431 0,-180 -54,-324 -162,-431 C 1136,54 992,0 813,0 Z"
   id="path3823"
   inkscape:connector-curvature="0" />
  </g>
  <g
   id="bullet-char-template-8226"
   transform="matrix(4.8828125e-4,0,0,-4.8828125e-4,0,0)">
   <path
   d="m 346,457 c -73,0 -137,26 -191,78 -54,51 -81,114 -81,188 0,73 27,136 81,188 54,52 118,78 191,78 73,0 134,-26 185,-79 51,-51 77,-114 77,-187 0,-75 -25,-137 -76,-188 -50,-52 -112,-78 -186,-78 z"
   id="path3826"
   inkscape:connector-curvature="0" />
  </g>
  <g
   id="bullet-char-template-8211"
   transform="matrix(4.8828125e-4,0,0,-4.8828125e-4,0,0)">
   <path
   d="M -4,459 H 1135 V 606 H -4 Z"
   id="path3829"
   inkscape:connector-curvature="0" />
  </g>
  <g
   id="bullet-char-template-61548"
   transform="matrix(4.8828125e-4,0,0,-4.8828125e-4,0,0)">
   <path
   d="m 173,740 c 0,163 58,303 173,419 116,115 255,173 419,173 163,0 302,-58 418,-173 116,-116 174,-256 174,-419 0,-163 -58,-303 -174,-418 C 1067,206 928,148 765,148 601,148 462,206 346,322 231,437 173,577 173,740 Z"
   id="path3832"
   inkscape:connector-curvature="0" />
  </g>
 </defs>
 <g
   id="g3840"
   transform="translate(-306,-306)">
  <g
   id="id2"
   class="Master_Slide">
   <g
   id="bg-id2"
   class="Background" />
   <g
   id="bo-id2"
   class="BackgroundObjects" />
  </g>
 </g>
 <g
   class="SlideGroup"
   id="g3865"
   transform="translate(-306,-306)">
  <g
   id="g3863">
   <g
   id="container-id1">
    <g
   id="id1"
   class="Slide"
   clip-path="url(#presentation_clip_path)">
     <g
   class="Page"
   id="g3859">
      <g
   class="Graphic"
   id="g3857">
       <g
   id="id3">
        <rect
   class="BoundingBox"
   x="306"
   y="306"
   width="2033"
   height="788"
   id="rect3842"
   style="fill:none;stroke:none" />
        <path
   d="m 309,699 v 391 H 1322 2335 V 699 308 H 1322 309 Z m 1955,-328 2,1 v 319 c 0,327 0,322 -2,325 l -2,1 h -941 c -518,0 -943,0 -944,0 -4,-2 -3,17 -3,-324 0,-175 0,-319 0,-320 1,-1 2,-2 3,-3 4,-2 1884,-1 1887,1 z m -891,45 c -3,2 -3,4 -5,17 -1,6 -2,12 -2,12 -1,1 -2,8 -3,15 -1,7 -2,15 -2,17 -1,2 -2,10 -4,19 -1,9 -4,25 -5,36 -2,11 -5,26 -6,34 -1,7 -3,17 -4,22 -1,4 -2,11 -2,15 -1,4 -2,12 -3,18 -2,11 -4,25 -8,47 -2,11 -6,35 -9,54 -1,8 -3,22 -5,31 -1,9 -3,20 -4,26 -6,34 -7,42 -5,44 2,1 58,2 62,0 1,-1 2,-2 3,-7 3,-12 6,-13 14,-4 28,27 81,26 122,-1 65,-45 88,-146 44,-198 -18,-22 -39,-32 -69,-32 -23,0 -42,6 -61,20 -14,10 -15,7 -11,-20 5,-26 10,-62 11,-68 0,-2 2,-11 4,-21 1,-10 3,-22 4,-28 1,-6 3,-17 4,-25 4,-18 4,-21 1,-23 -3,-2 -58,-2 -61,0 z m -720,36 c -60,7 -108,55 -114,115 -5,44 16,69 76,93 41,17 52,30 51,56 -3,44 -52,73 -89,52 -14,-9 -27,-25 -31,-38 0,-1 -1,-2 -2,-3 l -2,-2 -3,2 c -8,5 -44,35 -45,38 -2,6 13,27 27,41 55,53 162,28 201,-46 29,-55 24,-107 -12,-134 -11,-8 -14,-10 -53,-28 -34,-16 -43,-25 -43,-42 0,-46 69,-66 101,-29 8,8 8,8 19,-4 4,-5 10,-12 14,-17 15,-17 15,-17 5,-25 -23,-21 -67,-33 -100,-29 z m 240,130 c -58,9 -101,43 -122,98 -9,25 -11,61 -3,86 5,18 20,37 38,49 33,21 87,22 133,3 81,-36 112,-156 54,-209 -23,-22 -62,-32 -100,-27 z m 828,0 c -68,10 -118,58 -129,125 -12,74 33,125 108,125 78,-1 139,-53 150,-130 11,-78 -46,-132 -129,-120 z m -670,7 c -6,1 -6,0 5,30 3,9 8,21 10,28 2,6 7,20 11,30 4,11 10,28 14,39 4,11 10,29 14,40 10,28 11,31 10,34 0,3 -6,13 -24,39 -4,6 -8,12 -10,15 -1,3 -6,10 -11,17 -4,6 -10,15 -12,18 -5,8 -11,17 -22,34 -5,7 -10,15 -12,18 -1,2 -4,6 -6,10 -5,6 -6,9 -4,10 1,1 39,2 56,1 l 12,-1 2,-2 c 2,-2 6,-8 10,-13 3,-6 9,-15 12,-20 4,-5 12,-17 19,-28 7,-10 14,-22 17,-26 2,-4 6,-9 7,-11 2,-3 8,-12 13,-19 5,-8 12,-19 16,-25 4,-6 10,-15 14,-21 4,-7 8,-12 9,-13 0,-1 4,-7 8,-13 4,-6 9,-14 12,-18 2,-3 6,-10 10,-15 3,-6 8,-13 11,-17 2,-4 6,-10 9,-14 2,-3 7,-10 10,-16 11,-17 16,-23 20,-30 2,-3 7,-10 10,-16 4,-5 9,-12 11,-15 18,-28 19,-29 13,-30 -6,-1 -65,0 -67,1 -2,1 -3,3 -13,19 -4,7 -11,17 -15,23 -4,7 -11,17 -15,23 -3,6 -7,13 -8,14 -2,3 -13,20 -23,36 -9,13 -10,15 -12,15 -5,0 -5,-1 -14,-31 -19,-72 -25,-95 -26,-97 -1,-1 -1,-2 -2,-3 -1,0 -64,-1 -69,0 z m 827,0 c -4,1 -3,3 4,25 4,11 9,23 10,26 1,3 5,14 9,24 3,11 9,26 11,34 3,8 6,17 8,21 1,4 5,13 7,21 3,8 8,21 11,29 8,22 9,20 -9,45 -4,6 -9,14 -11,18 -2,3 -7,9 -10,14 -3,4 -8,12 -11,17 -4,5 -9,13 -13,19 -3,5 -8,12 -10,15 -2,3 -7,12 -13,20 -16,24 -21,32 -19,34 1,1 62,2 67,0 2,-1 4,-3 9,-10 3,-5 6,-10 7,-11 3,-3 10,-15 22,-33 6,-8 12,-19 15,-23 2,-3 7,-11 11,-17 4,-6 10,-15 14,-21 4,-6 10,-15 14,-22 5,-6 10,-14 11,-17 2,-2 7,-10 11,-16 4,-6 10,-15 13,-20 4,-5 9,-13 11,-17 3,-4 7,-10 10,-15 3,-4 8,-11 11,-16 3,-5 7,-11 9,-14 3,-4 27,-42 47,-72 4,-6 10,-16 14,-21 10,-15 10,-14 8,-16 -2,-1 -59,-2 -67,-1 -3,0 -11,10 -20,25 -2,3 -6,11 -10,16 -3,6 -9,15 -12,20 -10,15 -36,56 -40,63 -10,15 -10,15 -28,-51 -3,-13 -7,-28 -9,-34 -1,-5 -4,-16 -6,-23 -5,-18 0,-16 -41,-16 -18,0 -34,0 -35,0 z m -961,50 c 37,8 50,62 25,100 -38,57 -111,44 -111,-19 0,-50 43,-90 86,-81 z m 546,-1 c 17,3 27,11 35,26 29,58 -36,134 -91,105 -15,-8 -27,-34 -25,-55 3,-36 27,-67 58,-75 12,-2 13,-3 23,-1 z m 282,1 c 40,9 51,66 20,107 -28,36 -77,40 -96,8 -32,-52 18,-128 76,-115 z"
   id="path3844"
   inkscape:connector-curvature="0"
   style="fill:#f7f4f3;stroke:none" />
        <path
   d="m 398,376 c -14,1 -14,1 -15,7 -1,13 0,587 1,594 1,6 0,9 -1,14 -2,10 -1,15 3,17 4,2 1865,2 1870,0 1,-1 3,-2 3,-3 2,-4 2,-615 0,-620 -2,-6 -3,-7 -6,-8 -3,0 -1816,-1 -1855,-1 z m 979,29 c 0,0 -1,1 -1,1 -1,0 -2,-1 -2,-1 0,-1 0,-1 1,-1 1,0 2,0 2,1 z m 31,3 c 25,0 29,0 30,1 3,2 6,6 6,9 0,1 0,2 0,2 2,0 2,2 0,4 -2,2 -4,19 -3,23 1,3 0,11 -2,13 -3,3 -4,7 -5,17 0,5 -1,12 -2,15 0,4 -2,12 -3,18 -1,6 -2,14 -3,17 -1,4 -1,9 -1,21 -1,18 -1,23 -4,26 -3,3 -4,11 -3,15 1,3 3,3 7,0 11,-7 28,-13 41,-14 14,-1 40,-1 42,0 1,1 6,3 11,5 5,2 10,5 12,5 2,2 13,9 16,11 0,1 1,1 1,1 1,0 1,1 2,2 0,1 3,4 6,7 3,3 5,6 5,7 0,0 1,2 3,5 19,28 22,79 8,118 -1,2 -2,6 -2,9 0,5 -1,8 -3,7 -1,-1 -13,19 -13,22 0,1 -1,2 -2,4 -2,2 -3,3 -3,4 0,3 -15,18 -22,23 -2,1 -7,5 -11,7 -3,3 -7,6 -7,6 -1,0 -10,6 -12,8 -2,2 -5,3 -9,4 -1,0 -7,2 -12,3 -12,4 -25,6 -37,6 -15,0 -44,-7 -47,-11 -4,-7 -13,-10 -15,-5 -1,4 -6,8 -10,8 -1,0 -5,0 -8,1 -6,2 -8,2 -12,1 -5,-2 -29,-2 -32,0 -4,1 -8,1 -10,-1 0,-1 -2,-1 -2,-1 -2,0 -5,-5 -6,-8 0,-2 -1,-3 -1,-3 -1,0 -1,-4 0,-5 0,0 1,-1 1,-3 0,-1 0,-2 0,-2 2,-1 9,-41 9,-48 0,-1 1,-7 2,-12 3,-12 4,-23 5,-33 0,-4 1,-10 2,-13 2,-6 5,-22 7,-35 1,-6 2,-15 5,-33 1,-3 2,-9 2,-13 3,-16 3,-15 6,-36 1,-5 1,-11 2,-15 1,-10 2,-17 3,-21 2,-4 3,-12 5,-25 1,-5 3,-16 4,-24 1,-9 3,-21 3,-27 0,-9 1,-11 2,-12 1,-1 2,-3 3,-7 0,-3 1,-8 2,-11 0,-3 1,-10 2,-16 0,-15 7,-24 15,-22 2,0 16,1 32,1 z m -725,37 c 3,0 10,1 17,2 11,2 22,4 24,6 1,1 2,1 3,2 1,0 6,3 10,6 12,7 23,14 24,14 1,0 7,12 7,15 0,4 -3,10 -11,17 -10,11 -20,22 -22,25 -5,10 -15,12 -20,5 -5,-7 -9,-10 -13,-11 -2,-1 -5,-2 -6,-4 -11,-10 -40,-11 -50,0 -1,1 -3,3 -5,3 -3,1 -11,7 -11,9 0,1 -1,2 -2,3 -4,4 -6,10 -6,18 0,7 2,14 4,14 0,0 3,2 5,4 4,6 9,9 12,9 4,0 9,2 11,5 2,3 35,18 39,18 1,0 3,1 4,2 1,1 6,6 12,10 19,13 34,28 34,36 0,2 5,23 6,26 2,3 2,16 0,19 -1,1 -2,6 -2,11 -3,17 -11,45 -15,50 -2,1 -6,10 -7,13 -1,4 -3,7 -8,13 -4,2 -10,9 -14,14 -5,5 -9,9 -10,9 0,0 -3,2 -6,4 -8,7 -29,17 -42,21 -5,1 -12,3 -16,5 -16,5 -63,3 -76,-3 -2,-2 -6,-3 -9,-4 -13,-5 -45,-35 -50,-46 -1,-3 -3,-6 -4,-8 -5,-6 -5,-12 -2,-17 1,-2 2,-4 2,-4 0,-2 8,-10 10,-10 3,0 9,-3 12,-7 2,-1 5,-3 6,-5 4,-2 9,-6 16,-13 7,-7 18,-2 21,9 2,9 3,10 4,11 1,1 3,4 5,6 12,15 22,19 49,19 13,0 38,-20 38,-30 0,-1 2,-5 4,-9 3,-9 4,-14 2,-22 -1,-3 -2,-6 -2,-7 0,-4 0,-5 -5,-9 -8,-7 -13,-10 -21,-12 -1,0 -3,-2 -5,-3 -4,-4 -11,-7 -15,-7 -5,0 -16,-5 -21,-9 -2,-2 -5,-3 -5,-3 -1,0 -18,-12 -26,-20 -13,-10 -21,-23 -23,-36 -4,-21 -3,-43 3,-59 1,-6 3,-11 3,-12 0,-1 1,-3 2,-4 3,-3 6,-9 6,-11 0,0 1,-2 2,-3 4,-4 9,-10 9,-13 0,-2 1,-3 3,-4 1,-1 7,-6 12,-12 8,-8 12,-11 15,-12 3,-1 7,-4 9,-6 3,-1 7,-3 9,-4 2,-1 6,-3 8,-4 5,-3 11,-5 23,-8 2,0 4,-1 5,-2 4,-1 32,-2 40,0 z m 245,130 c 7,1 14,1 15,2 1,0 2,-1 3,-1 4,-3 11,-1 16,3 1,2 3,3 4,3 18,4 53,40 56,57 1,5 3,11 6,13 2,3 3,31 1,46 -1,13 -5,33 -6,36 -2,3 -6,14 -8,18 -1,2 -2,5 -2,5 -1,1 -9,13 -11,18 -1,3 -2,5 -3,5 0,0 -1,1 -2,2 -1,3 -9,11 -10,11 -1,0 -7,5 -12,10 -13,10 -27,19 -36,22 -2,1 -6,3 -10,4 -4,2 -8,3 -10,4 -1,0 -7,1 -11,2 -30,7 -62,5 -91,-6 -1,0 -3,-1 -3,-1 -2,1 -5,0 -9,-4 -3,-2 -7,-5 -10,-6 -4,-2 -5,-3 -6,-5 0,-2 -3,-6 -8,-11 -10,-10 -17,-23 -21,-35 -2,-8 -3,-13 -5,-17 -1,-2 -1,-5 -1,-16 1,-8 1,-17 1,-20 0,-4 0,-7 1,-9 1,-2 3,-9 6,-17 2,-8 4,-16 5,-18 2,-3 4,-7 5,-10 10,-25 38,-54 65,-67 4,-2 9,-5 11,-6 4,-3 12,-6 14,-6 1,0 5,-1 9,-2 4,-1 11,-2 17,-3 6,0 15,-1 18,-2 4,0 8,0 9,0 1,0 7,1 13,1 z m 839,0 c 1,1 3,1 6,2 22,5 28,8 32,11 5,4 7,5 10,5 4,0 5,1 10,7 3,4 7,9 10,11 3,3 6,6 6,8 1,2 2,5 3,6 4,5 13,27 13,31 0,2 0,6 0,9 2,11 2,20 1,28 0,4 -1,10 -1,14 0,5 -1,9 -1,10 -1,1 -2,3 -2,5 0,1 -2,5 -3,8 -1,3 -2,9 -3,12 -1,6 -3,11 -8,16 -2,2 -5,7 -7,11 -2,4 -4,8 -5,9 -1,1 -3,2 -3,4 -1,2 -4,4 -6,6 -1,1 -5,5 -7,7 -3,3 -7,7 -9,9 -3,1 -9,6 -14,9 -12,8 -19,12 -26,14 -9,3 -13,5 -14,5 -3,2 -13,5 -16,5 -2,-1 -8,0 -14,1 -12,1 -28,1 -39,0 -12,-2 -27,-5 -29,-6 -2,-2 -8,-4 -11,-5 -4,-2 -18,-11 -22,-15 -2,-2 -4,-3 -4,-3 -2,0 -6,-5 -10,-12 -2,-2 -4,-5 -6,-6 -1,-2 -2,-4 -2,-5 0,-1 -2,-4 -3,-6 -2,-4 -4,-10 -8,-28 0,-2 -1,-6 -2,-8 -1,-3 -1,-26 -1,-35 0,-1 1,-1 1,0 1,1 2,1 2,-2 0,-4 2,-17 3,-19 1,-2 2,-6 3,-9 1,-3 2,-6 2,-6 1,0 1,-1 1,-1 0,-1 10,-20 11,-22 0,0 1,-2 2,-5 1,-2 3,-5 4,-7 2,-1 3,-3 3,-4 0,-1 1,-2 3,-3 1,-1 3,-2 3,-2 2,-3 10,-11 16,-16 3,-3 8,-6 9,-8 12,-10 41,-23 62,-28 8,-2 56,-3 60,-2 z m -644,9 c 5,1 7,7 12,25 2,12 5,21 6,23 0,2 2,6 2,9 3,12 6,21 7,22 1,1 1,3 1,5 0,8 4,22 7,25 1,1 1,4 2,7 1,6 1,8 2,8 2,0 4,-3 4,-5 0,-1 1,-3 2,-4 1,-2 2,-3 2,-4 0,0 1,-1 2,-3 4,-4 8,-8 10,-13 1,-2 4,-6 5,-9 2,-2 5,-7 6,-9 2,-2 3,-5 3,-5 0,-1 2,-3 4,-6 4,-5 6,-9 6,-11 0,-1 4,-7 9,-13 3,-3 6,-8 8,-11 1,-3 4,-8 6,-11 2,-3 4,-8 5,-10 2,-5 8,-9 13,-11 5,-1 72,-1 75,0 6,2 6,13 1,19 -1,1 -2,3 -3,4 -1,2 -2,4 -3,4 -1,0 -7,9 -10,15 -1,2 -3,5 -5,7 -4,4 -9,12 -10,16 -1,3 -2,5 -4,6 -1,1 -3,4 -4,6 -2,2 -4,7 -7,10 -8,11 -19,28 -21,31 -1,2 -5,7 -7,11 -4,5 -6,8 -6,10 0,3 0,3 -2,5 -4,3 -14,18 -16,23 -1,3 -2,5 -5,8 -6,6 -20,26 -20,28 0,1 -3,6 -7,11 -4,5 -9,13 -12,18 -2,5 -6,11 -7,13 -2,2 -3,4 -3,5 0,0 -2,2 -3,4 -4,3 -8,10 -8,13 0,1 -1,2 -2,3 -3,3 -7,8 -12,15 -1,3 -4,7 -6,9 -3,4 -8,13 -8,14 0,1 -2,4 -5,8 -6,7 -7,9 -6,12 0,2 -2,5 -5,5 -2,1 -12,15 -12,20 -1,4 -3,7 -5,7 -1,0 -4,4 -4,5 0,1 -3,4 -6,6 l -5,5 h -36 c -32,0 -37,0 -39,-1 -5,-3 -6,-7 -2,-13 1,-2 2,-4 2,-5 0,-1 2,-3 3,-5 5,-5 10,-14 12,-19 1,-3 2,-5 4,-6 4,-2 12,-15 11,-17 0,-2 2,-5 4,-6 3,-2 13,-16 16,-23 1,-2 3,-6 4,-7 7,-7 17,-24 17,-27 0,-3 2,-5 4,-5 2,0 10,-11 18,-24 l 3,-6 v -9 c 0,-10 -2,-17 -21,-66 -1,-4 -5,-14 -7,-21 -2,-8 -6,-17 -8,-21 -2,-4 -4,-9 -4,-12 -1,-3 -4,-13 -7,-21 -3,-9 -6,-18 -8,-22 -2,-7 -6,-16 -8,-19 -3,-7 -3,-18 2,-20 4,-2 72,-3 79,0 z m 825,-1 c 5,1 8,3 9,9 1,3 3,7 3,10 1,2 3,6 3,9 1,2 2,9 4,15 2,6 4,14 4,17 1,3 2,6 3,7 1,2 4,14 4,16 0,4 5,19 7,24 1,3 3,7 4,10 1,5 2,6 4,3 1,-2 7,-11 10,-14 3,-3 10,-15 16,-25 3,-5 6,-11 7,-12 3,-4 6,-9 6,-11 0,-1 2,-3 3,-4 2,-2 5,-5 6,-8 2,-3 6,-9 9,-14 3,-4 6,-9 7,-11 1,-2 3,-5 5,-7 1,-2 3,-5 4,-7 4,-8 7,-8 49,-8 33,0 36,1 39,4 2,3 0,10 -5,17 -1,1 -3,4 -4,7 -1,2 -3,5 -5,7 -1,1 -6,7 -10,15 -5,7 -9,14 -10,15 -3,4 -7,11 -7,13 0,1 -2,4 -4,6 -2,2 -5,5 -5,6 -1,1 -3,4 -5,6 -1,2 -3,6 -5,8 -1,3 -3,6 -4,7 -1,1 -4,5 -5,9 -2,3 -6,8 -8,11 -2,4 -4,7 -4,9 -1,2 -2,3 -4,5 -3,2 -17,22 -23,32 -1,3 -5,8 -7,11 -6,8 -8,12 -8,15 0,3 -2,5 -4,6 -3,1 -12,14 -15,21 -2,4 -4,7 -5,8 -2,2 -12,16 -17,24 -1,2 -2,5 -2,5 0,1 0,3 -2,5 -4,3 -10,10 -14,18 -2,3 -6,9 -8,13 -3,5 -6,10 -6,11 -1,2 -3,5 -5,7 -3,2 -5,5 -5,7 -1,2 -2,5 -3,6 -6,7 -22,30 -23,33 -1,6 -13,11 -21,11 -3,0 -17,-1 -32,-1 -41,0 -43,-1 -31,-22 3,-5 6,-10 7,-11 0,-1 2,-3 3,-5 6,-5 21,-27 21,-30 0,0 1,-2 1,-2 8,-8 15,-19 20,-30 3,-5 6,-10 7,-11 2,-2 3,-3 3,-4 0,-1 1,-3 2,-4 3,-2 6,-5 10,-14 2,-5 5,-8 7,-11 2,-2 5,-6 7,-9 1,-3 4,-7 5,-9 2,-1 3,-3 3,-4 0,0 0,-3 1,-5 0,-5 -2,-11 -6,-23 -2,-4 -4,-9 -5,-13 -1,-3 -3,-8 -5,-11 -1,-3 -3,-9 -5,-14 -2,-9 -8,-26 -9,-29 -1,-1 -2,-4 -3,-7 -1,-3 -3,-8 -4,-11 -4,-9 -7,-16 -7,-20 -1,-5 -3,-10 -5,-11 -3,-1 -4,-4 -4,-10 0,-5 -8,-30 -11,-34 -1,-1 -2,-4 -3,-8 -1,-9 -1,-9 2,-12 l 2,-2 h 17 c 19,-1 54,-1 59,0 z M 893,645 c -11,3 -23,9 -23,13 0,2 -4,6 -8,7 -5,2 -13,13 -16,23 -1,3 -2,7 -3,9 -8,16 -4,44 6,55 2,2 5,6 7,7 6,7 17,9 38,6 15,-2 28,-11 35,-25 3,-6 4,-8 7,-9 4,-1 7,-7 6,-12 0,-3 0,-4 2,-6 8,-9 3,-42 -7,-48 -1,-1 -3,-3 -5,-5 -1,-2 -4,-6 -6,-7 -2,-2 -5,-4 -5,-5 -5,-4 -17,-5 -28,-3 z m 549,1 c -12,3 -17,6 -20,12 -2,4 -5,7 -9,8 -5,1 -11,10 -15,21 -1,1 -1,3 -2,3 -2,0 -7,19 -6,25 1,2 1,4 0,6 -1,5 1,13 4,19 1,2 3,6 4,8 5,9 10,15 14,15 2,0 6,1 9,3 11,4 22,3 32,-4 2,-1 5,-2 6,-2 3,0 12,-6 12,-8 0,0 1,-3 4,-5 5,-6 7,-9 8,-11 1,-1 3,-4 4,-5 12,-14 15,-52 4,-63 -1,-1 -3,-4 -4,-7 -2,-5 -8,-10 -10,-10 0,0 -2,-1 -4,-2 -10,-5 -19,-6 -31,-3 z m 282,-1 c -4,1 -11,3 -12,4 0,0 -2,1 -5,2 -6,2 -13,7 -13,10 0,1 -1,3 -5,6 -4,3 -10,10 -10,12 0,1 -4,7 -4,7 -5,0 -10,29 -7,38 2,3 2,5 2,8 -2,6 1,15 5,16 1,1 3,3 5,6 4,4 7,6 17,12 4,3 9,3 15,2 3,-1 7,-2 10,-2 6,-1 14,-5 22,-12 2,-1 5,-3 7,-5 6,-4 20,-26 20,-31 0,-1 1,-4 2,-6 2,-3 2,-5 2,-14 1,-14 0,-16 -8,-32 -1,-2 -3,-5 -4,-7 -2,-4 -7,-8 -11,-8 -1,0 -4,-1 -6,-3 -7,-4 -12,-5 -22,-3 z"
   id="path3846"
   inkscape:connector-curvature="0"
   style="fill:#e32421;stroke:none" />
        <path
   d="m 379,372 -2,1 -1,320 c 0,308 0,319 2,320 1,2 1880,3 1883,1 1,0 2,-1 2,-1 1,-4 1,-639 -1,-640 -1,-2 -1880,-3 -1883,-1 z m 1882,2 c 2,1 2,636 0,638 -2,2 -1881,2 -1882,0 -2,-3 -2,-637 0,-638 2,-2 1879,-2 1882,0 z m -888,37 c -4,0 -7,4 -7,7 -1,2 -2,7 -3,13 0,5 -2,17 -4,26 -1,9 -4,23 -5,31 -1,8 -3,22 -5,31 -1,9 -4,22 -5,29 -1,7 -3,19 -4,28 -3,16 -5,31 -10,57 -1,8 -3,18 -3,23 -1,4 -3,18 -5,30 -3,13 -5,28 -6,33 -1,6 -3,17 -4,26 -6,36 -8,48 -9,57 -6,28 -7,26 29,26 41,1 41,1 43,-9 2,-7 3,-7 8,-3 40,37 117,21 159,-32 60,-77 44,-181 -31,-203 -28,-9 -61,-4 -88,13 -11,7 -11,7 -7,-21 2,-9 4,-22 5,-28 1,-6 2,-15 3,-19 2,-12 6,-39 8,-53 1,-7 3,-16 4,-19 0,-3 1,-9 2,-13 0,-4 1,-10 2,-14 2,-12 1,-16 -6,-17 -8,0 -59,0 -61,1 z m 65,2 c 2,3 2,7 -3,33 -1,5 -2,14 -3,20 -1,6 -3,17 -4,24 -1,7 -3,16 -3,21 -1,5 -3,17 -5,26 -12,71 -12,69 0,61 39,-28 96,-26 126,5 42,42 41,117 -2,176 -42,56 -119,74 -160,36 -7,-7 -8,-7 -10,2 -2,10 0,10 -37,10 -36,0 -35,0 -35,-7 0,-3 3,-22 6,-38 0,-5 1,-10 2,-13 0,-4 1,-9 7,-44 5,-32 12,-72 13,-78 0,-4 1,-9 2,-13 0,-3 2,-10 2,-15 1,-6 2,-10 2,-10 0,-1 1,-5 2,-10 0,-5 2,-13 3,-18 0,-5 2,-15 3,-22 3,-16 6,-34 12,-70 2,-14 5,-31 6,-37 1,-7 2,-16 3,-20 1,-5 2,-10 2,-11 0,-4 2,-7 4,-8 5,-2 64,-2 67,0 z m -785,34 c -55,5 -107,53 -117,108 -10,52 11,83 75,109 23,9 38,18 43,25 9,11 9,33 1,49 -24,46 -83,42 -103,-6 -7,-16 -7,-16 -29,2 -5,4 -13,10 -18,15 -20,15 -20,15 -9,33 23,39 57,57 103,56 72,-2 125,-45 142,-115 14,-57 -4,-93 -60,-119 -32,-14 -36,-17 -42,-20 -16,-9 -20,-15 -20,-28 0,-12 3,-19 12,-28 26,-25 62,-22 85,7 6,6 9,5 17,-5 3,-4 11,-13 18,-21 18,-21 18,-22 2,-35 -27,-20 -65,-30 -100,-27 z m 28,2 c 27,2 58,15 75,30 10,9 10,10 1,21 -37,43 -33,41 -43,30 -28,-33 -87,-22 -96,18 -5,21 4,31 43,49 42,19 53,26 65,40 14,16 18,31 17,57 -2,71 -53,130 -121,140 -57,9 -97,-8 -125,-55 -10,-15 -12,-13 18,-37 30,-24 30,-24 33,-15 19,53 80,61 107,14 5,-10 7,-17 8,-28 0,-24 -10,-34 -51,-51 -55,-22 -76,-46 -76,-84 0,-76 68,-137 145,-129 z m 213,129 c -78,8 -136,74 -136,153 0,69 51,111 128,105 71,-6 129,-59 140,-128 13,-85 -43,-140 -132,-130 z m 827,0 c -66,8 -119,57 -132,123 -18,86 41,146 133,134 70,-9 123,-62 132,-132 12,-82 -46,-136 -133,-125 z m 32,0 c 68,5 109,56 100,123 -11,80 -73,133 -153,133 -80,0 -125,-54 -110,-132 14,-72 73,-121 149,-124 2,0 8,0 14,0 z m -807,4 c 52,12 80,48 80,101 0,80 -60,145 -140,151 -86,7 -138,-47 -125,-128 9,-56 50,-103 103,-120 26,-8 59,-10 82,-4 z m 333,3 c -31,0 -32,0 -34,2 -2,1 -17,23 -20,29 0,1 -4,7 -9,15 -5,7 -11,16 -13,19 -1,3 -7,11 -11,18 -27,42 -29,45 -30,45 -2,0 -3,-2 -5,-10 -1,-4 -4,-15 -6,-24 -3,-8 -5,-18 -6,-20 -1,-3 -2,-7 -3,-11 -1,-3 -3,-10 -4,-16 -4,-15 -8,-28 -9,-34 -3,-8 -4,-10 -6,-12 -4,-2 -76,-2 -79,0 -3,2 -2,8 5,27 3,9 9,24 12,33 3,9 8,23 11,32 4,8 8,21 10,27 2,6 7,18 9,26 3,8 8,20 10,27 3,7 6,17 8,21 2,7 2,9 2,11 -1,3 -4,8 -19,31 -4,6 -10,14 -12,18 -3,4 -9,12 -13,19 -5,7 -12,18 -17,25 -4,7 -12,18 -17,25 -21,32 -26,41 -26,43 0,5 1,5 40,5 41,0 37,2 47,-13 7,-11 30,-46 36,-55 2,-3 8,-12 14,-20 5,-9 12,-19 14,-23 3,-4 8,-12 12,-18 5,-7 9,-14 11,-17 2,-2 6,-9 10,-15 4,-5 10,-14 13,-19 3,-6 9,-14 12,-20 4,-5 11,-16 16,-24 16,-24 18,-26 23,-34 8,-12 17,-25 21,-33 5,-7 18,-27 25,-37 3,-4 7,-10 10,-15 2,-4 6,-9 7,-11 13,-18 12,-18 -39,-17 z m 593,2 c -3,2 -2,4 2,17 2,6 6,18 10,27 3,9 9,27 14,40 5,13 10,27 11,31 1,4 5,15 9,26 8,20 16,43 19,53 3,8 3,9 -3,18 -7,11 -24,36 -30,46 -2,3 -6,8 -8,12 -3,4 -8,11 -11,16 -4,6 -9,14 -12,19 -3,4 -11,16 -18,26 -22,33 -23,36 -16,38 2,0 17,0 36,0 38,0 38,0 42,-5 5,-7 27,-41 50,-76 7,-12 18,-28 24,-37 2,-3 7,-10 11,-17 4,-6 10,-15 13,-19 3,-5 9,-14 12,-20 4,-5 8,-12 9,-13 2,-2 9,-13 17,-25 12,-18 22,-34 34,-52 4,-7 16,-25 24,-36 7,-11 23,-36 29,-45 2,-3 5,-8 7,-11 6,-8 7,-12 3,-14 -3,-2 -73,-1 -76,0 -3,1 -6,6 -19,27 -14,21 -24,37 -26,41 -2,2 -4,6 -6,8 -2,5 -24,39 -29,46 -4,8 -6,7 -9,-4 0,-3 -3,-11 -4,-17 -2,-6 -7,-24 -11,-39 -4,-15 -8,-30 -9,-33 -1,-3 -2,-10 -3,-14 -3,-10 -5,-13 -7,-15 -3,-2 -77,-2 -79,1 z m -753,-1 c 5,1 6,3 11,23 6,24 13,50 15,57 1,3 4,15 7,25 9,33 7,33 26,1 5,-7 13,-20 18,-28 5,-8 11,-16 12,-18 22,-36 29,-47 32,-50 1,-3 4,-6 5,-7 l 3,-3 h 34 c 45,0 46,0 35,14 -1,1 -3,5 -4,7 -2,3 -6,9 -9,14 -3,4 -11,15 -16,24 -6,9 -13,19 -15,22 -2,3 -7,11 -10,16 -4,6 -8,13 -11,16 -7,12 -17,26 -38,58 -3,6 -8,13 -11,17 -3,4 -9,14 -15,23 -5,8 -12,19 -16,24 -3,5 -10,15 -14,21 -4,7 -9,14 -10,17 -2,2 -6,8 -9,13 -4,5 -7,11 -9,13 -1,1 -3,5 -4,7 -2,2 -4,6 -6,9 -15,23 -20,29 -28,42 -8,13 -3,11 -44,12 -38,0 -39,0 -39,-4 0,-2 11,-19 28,-44 3,-6 10,-16 15,-24 5,-8 13,-19 17,-25 4,-6 8,-13 10,-16 2,-2 6,-9 10,-15 27,-40 25,-37 23,-45 -3,-7 -19,-52 -24,-66 -2,-6 -5,-15 -7,-20 -4,-10 -12,-32 -17,-48 -3,-6 -8,-21 -12,-32 -10,-28 -10,-29 -4,-30 4,0 67,0 71,0 z m 829,1 c 4,1 6,4 8,16 1,4 2,9 3,10 0,1 3,11 6,21 3,11 7,26 9,33 2,8 5,21 8,30 7,27 4,29 32,-16 10,-16 23,-36 28,-45 6,-9 12,-19 14,-21 8,-13 16,-26 18,-27 4,-3 73,-2 76,0 2,2 1,4 -5,12 -3,5 -11,17 -21,32 -1,3 -5,8 -8,13 -6,9 -11,17 -22,33 -4,6 -9,14 -11,18 -3,3 -7,10 -10,14 -3,4 -7,11 -10,16 -3,4 -8,11 -10,15 -3,4 -10,15 -16,24 -6,9 -12,18 -13,20 -1,2 -4,7 -7,10 -2,4 -9,14 -14,22 -5,8 -11,17 -13,19 -3,6 -19,29 -25,39 -3,4 -7,11 -10,14 -2,3 -9,15 -16,25 -21,33 -25,38 -27,39 -4,3 -73,2 -74,0 -2,-3 -1,-6 14,-28 4,-6 9,-13 11,-15 4,-8 20,-32 24,-38 2,-3 7,-10 11,-15 6,-9 24,-36 38,-58 6,-9 6,-10 -1,-30 -3,-9 -8,-20 -10,-26 -2,-6 -5,-14 -6,-19 -2,-4 -5,-14 -8,-21 -2,-7 -8,-22 -12,-33 -29,-82 -29,-82 -23,-84 3,0 69,0 72,1 z M 892,641 c -45,10 -73,71 -50,110 28,45 99,15 109,-46 6,-41 -21,-71 -59,-64 z m 550,0 c -32,7 -59,46 -57,82 3,50 54,67 91,30 49,-47 25,-124 -34,-112 z m 278,0 c -44,10 -72,69 -51,108 19,35 69,30 96,-9 34,-50 7,-109 -45,-99 z m -807,1 c 30,5 45,41 33,76 -15,46 -68,69 -95,41 -40,-42 4,-126 62,-117 z m 551,1 c 31,5 46,46 30,81 -29,66 -108,62 -107,-6 0,-44 38,-82 77,-75 z m 285,2 c 37,14 39,73 4,107 -39,37 -89,18 -89,-34 0,-36 24,-67 59,-76 5,-1 20,0 26,3 z"
   id="path3848"
   inkscape:connector-curvature="0"
   style="fill:#d9716e;stroke:none" />
        <path
   d="m 380,374 c -1,2 -1,638 1,638 185,0 1879,-1 1879,-1 0,0 0,-1 0,-3 l -1,-2 -3,2 c -4,2 -1866,2 -1870,0 -4,-2 -5,-7 -3,-17 1,-5 2,-8 1,-14 -1,-7 -2,-581 -1,-594 0,-2 1,-5 2,-5 2,-2 1865,-2 1869,0 2,0 3,1 3,1 0,0 1,2 1,5 l 2,4 v -6 c 0,-4 0,-7 -1,-7 0,-1 -421,-1 -934,-1 -514,0 -935,0 -937,0 -2,0 -4,0 -5,0 -1,-1 -2,0 -3,0 z m 994,31 c 0,0 1,1 2,1 0,0 1,-1 1,-1 0,-1 -1,-1 -2,-1 -1,0 -1,0 -1,1 z m -13,13 c 0,0 0,2 0,4 0,4 0,4 1,3 1,-2 0,-8 -1,-7 z m 83,4 c 0,1 0,1 0,1 1,0 1,-1 1,-1 0,-1 0,-2 -1,-2 0,0 0,1 0,2 z m -799,23 c 1,0 2,0 3,0 1,0 0,0 -2,0 -1,0 -2,0 -1,0 z m 794,5 c 0,2 -1,5 -1,7 0,4 0,4 1,3 1,-1 3,-9 2,-12 0,-3 -1,-2 -2,2 z m -731,-1 c 0,0 1,1 3,1 4,2 8,3 17,7 4,2 7,3 7,3 0,-1 -7,-6 -9,-6 0,0 -1,0 -2,0 -2,-2 -16,-6 -16,-5 z m 645,14 c 0,1 -2,19 -1,19 1,0 3,-15 3,-17 0,-2 -1,-3 -2,-2 z m -768,8 -2,2 2,-1 c 3,-1 5,-3 3,-3 0,0 -2,1 -3,2 z m 176,7 c 1,1 2,1 3,1 0,0 -2,-4 -4,-4 0,0 0,1 1,3 z m -200,15 c -1,1 -2,2 -2,3 1,2 1,1 3,-1 3,-4 3,-5 -1,-2 z m 201,7 c -1,2 -3,4 -3,5 -2,3 3,-2 5,-5 2,-3 1,-3 -2,0 z m -72,18 c 2,2 5,4 6,4 1,2 6,5 8,5 3,0 -10,-9 -14,-10 -6,-1 -6,-1 0,1 z m -45,3 c -5,2 -6,5 -2,4 1,-1 6,-6 5,-6 0,0 -2,1 -3,2 z m -104,5 c -1,1 -1,2 -1,2 0,1 1,0 1,-1 1,-1 1,-2 1,-3 0,0 -1,1 -1,2 z m 192,8 c -1,1 -1,2 -1,3 0,1 3,-3 3,-4 0,-1 0,-1 -2,1 z m -105,2 -2,3 2,-2 c 2,-1 2,-2 2,-3 0,0 -1,1 -2,2 z m -94,11 c -1,1 -1,2 -1,3 0,2 1,1 1,-1 1,-2 1,-4 0,-2 z m 889,3 c -4,19 -5,30 -1,23 2,-5 3,-12 3,-19 -1,-5 -1,-6 -2,-4 z m -83,2 c -1,4 -3,13 -3,16 0,3 1,1 3,-11 2,-9 2,-10 0,-5 z m -719,4 c 0,2 0,3 1,2 0,-1 0,-3 0,-4 -1,-1 -1,0 -1,2 z m 4,14 c 1,2 2,2 7,5 2,2 2,2 -2,-2 -4,-5 -6,-6 -5,-3 z m 871,4 c -1,1 -1,1 2,1 5,0 13,2 16,4 2,1 3,1 4,1 0,0 -2,-1 -4,-2 -2,-1 -5,-2 -6,-3 -2,-1 -10,-1 -12,-1 z m -549,1 c -2,1 -1,2 5,3 3,1 8,3 9,3 3,1 3,1 0,-2 -4,-4 -12,-5 -14,-4 z m 815,0 c 1,1 5,1 5,0 -1,0 -2,-1 -3,-1 -1,0 -2,1 -2,1 z m -888,3 c -1,0 -1,0 0,0 1,0 2,0 3,0 1,-1 0,-1 -3,0 z m -232,4 c -1,0 2,3 4,3 1,0 2,1 4,1 3,3 5,3 4,1 -2,-3 -10,-7 -12,-5 z m 214,1 c -5,2 -7,3 -3,2 2,0 4,-1 5,-2 2,0 3,-1 4,-1 3,-2 -1,-1 -6,1 z m 109,-1 c 0,1 5,3 6,3 1,0 0,-1 -1,-1 -2,-1 -5,-3 -5,-2 z m 451,7 c -1,4 0,5 2,4 1,0 1,-1 0,-4 l -1,-3 z m -180,1 c -1,1 -1,3 -1,3 0,0 1,-1 2,-2 1,-1 1,-2 1,-3 0,0 -1,1 -2,2 z m 578,3 c 0,0 2,2 5,4 2,2 4,3 5,3 3,4 3,3 0,-1 -2,-3 -4,-5 -5,-5 -1,-1 -5,-1 -5,-1 z m -491,5 c 0,1 -1,3 -1,3 0,0 -1,2 -2,3 -3,4 -4,6 -3,6 1,0 2,-2 3,-4 1,-1 2,-4 3,-4 1,-2 3,-6 2,-6 0,0 -1,1 -2,2 z m 224,-1 c 0,1 1,3 2,3 1,0 1,-1 1,-2 -1,-1 -3,-2 -3,-1 z m 321,2 c 0,2 3,7 3,7 1,0 -2,-9 -2,-9 0,0 -1,1 -1,2 z m -827,0 c 0,1 0,2 1,3 1,2 1,0 0,-3 l -1,-1 z m -349,7 c 2,2 6,3 6,3 0,-2 -3,-4 -5,-4 -2,0 -2,0 -1,1 z m 115,7 c -3,2 -4,4 -2,2 2,-1 3,-2 3,-2 1,-1 0,-1 -1,0 z m 1029,1 c 1,1 3,3 4,4 l 1,2 v -2 c -1,-2 -4,-6 -6,-6 0,0 0,1 1,2 z m 306,-1 c -1,2 -2,3 -1,3 1,0 3,-3 3,-4 -1,0 -1,0 -2,1 z m -930,16 c -1,2 -2,3 -1,3 1,-1 3,-4 3,-4 -1,0 -1,0 -2,1 z m -485,3 c 2,1 3,2 3,2 0,0 -2,-3 -3,-4 -1,0 -1,0 0,2 z m 890,-1 c -2,1 -3,2 -3,3 0,1 -1,2 -2,4 -3,2 -7,10 -5,8 1,-1 12,-16 12,-16 0,0 -1,0 -2,1 z m -410,5 c 0,2 -1,3 0,3 0,0 1,-1 1,-2 2,-3 1,-3 -1,-1 z m 675,3 c 0,6 1,9 3,10 2,1 2,1 2,-1 -1,-1 -2,-4 -2,-6 -2,-7 -3,-8 -3,-3 z m 153,-1 c -2,1 -3,2 -3,3 0,2 1,1 4,-3 2,-3 2,-3 -1,0 z m -1297,9 c 2,4 4,7 4,6 1,-2 -4,-12 -6,-13 -1,-1 -1,1 2,7 z m 552,3 c -4,5 -4,5 -2,4 2,-1 5,-6 4,-7 0,0 -1,1 -2,3 z m 456,-1 c 2,1 5,2 6,2 h 3 l -2,-2 c -1,-1 -3,-2 -4,-2 -1,0 -3,0 -4,0 -2,0 -1,0 1,2 z m -825,-1 c 1,1 3,3 5,5 2,1 5,5 6,7 2,2 4,4 5,5 2,1 4,3 4,5 2,3 3,4 2,1 -4,-10 -13,-21 -21,-23 -2,-1 -2,-1 -1,0 z m 551,1 c 2,1 5,2 5,1 0,0 -5,-3 -6,-3 0,0 0,1 1,2 z m 382,-1 c 0,0 1,2 1,5 1,4 1,4 1,1 1,-2 0,-4 -1,-5 0,-1 -1,-2 -1,-1 z m -144,1 c -1,1 -1,1 0,1 1,0 2,-1 2,-1 0,-1 -1,-1 -2,0 z m -1130,4 c 1,1 2,2 3,2 2,0 2,0 0,-1 0,-1 -2,-2 -3,-2 -1,0 -1,0 0,1 z m 446,-1 c 0,0 1,2 2,4 l 1,3 v -3 c 0,-1 -1,-3 -1,-4 -1,0 -2,-1 -2,0 z m -437,7 c 3,3 15,8 19,8 2,0 1,-2 -5,-3 -2,-1 -6,-3 -8,-4 -2,-1 -5,-3 -7,-3 l -3,-1 z m 828,-1 c -4,3 -7,8 -5,8 2,0 6,-2 8,-5 5,-6 3,-7 -3,-3 z m -552,2 c -4,4 -4,5 -3,5 3,1 9,-5 8,-8 0,-1 -1,0 -5,3 z m 825,2 c -5,5 -4,8 1,3 3,-2 4,-3 3,-4 0,-2 0,-2 -4,1 z m 420,0 c -1,2 -1,2 0,2 1,0 2,-1 2,-2 1,-3 0,-3 -2,0 z m -623,-1 c 0,1 2,5 4,7 1,1 1,0 -1,-4 -2,-3 -3,-4 -3,-3 z m 278,0 c 0,2 5,13 6,12 1,0 -1,-6 -3,-7 0,0 -1,-1 -1,-2 0,-1 -2,-4 -2,-3 z m 126,1 c 0,1 1,3 1,3 1,2 1,0 0,-3 l -1,-1 z m -742,3 c 1,4 2,5 2,3 0,-3 0,-5 -1,-5 -1,0 -1,1 -1,2 z m -525,9 c 2,1 4,3 5,3 2,0 3,1 4,1 0,0 1,0 0,-1 0,-1 -3,-2 -9,-5 l -3,-1 z m 968,1 c 0,1 0,2 0,2 1,-1 2,-4 1,-4 0,0 -1,1 -1,2 z m 85,5 c -3,5 -4,6 -3,6 1,0 2,-1 3,-3 4,-7 4,-9 0,-3 z m -929,8 c 0,11 0,12 1,9 2,-2 1,-17 0,-19 -1,-1 -1,1 -1,10 z m 650,-3 c -2,1 -2,5 -2,5 1,0 3,-5 3,-6 -1,0 -1,0 -1,1 z m -752,0 c 0,0 1,2 3,3 l 4,3 -3,-3 c -3,-3 -4,-4 -4,-3 z m 199,4 c -1,2 -2,4 -2,6 -1,4 1,0 3,-5 1,-5 0,-5 -1,-1 z m 743,0 c -1,1 -2,7 -1,7 0,0 1,-2 1,-4 1,-4 1,-5 0,-3 z m -431,5 c 2,6 3,7 2,3 0,-1 -1,-3 -1,-4 -1,-1 -1,-1 -1,1 z m 13,0 c 0,2 -2,4 -3,5 -1,2 -1,3 -1,4 0,1 1,0 3,-4 2,-3 3,-6 3,-7 0,0 -1,1 -2,2 z m 816,0 c 0,1 1,5 2,8 0,3 1,6 1,6 0,2 2,1 3,-1 3,-4 7,-11 8,-13 1,-1 1,-2 1,-2 -1,0 -7,8 -8,11 -2,3 -3,2 -5,-4 -1,-7 -2,-9 -2,-5 z m -1331,4 c 0,1 0,4 1,6 l 1,3 v -4 c 0,-2 0,-5 -1,-6 -1,-1 -1,-1 -1,1 z m 1427,7 c -1,1 -5,7 -5,8 0,1 4,-4 5,-7 2,-3 2,-3 0,-1 z m -1326,1 c -1,1 -2,10 -1,9 0,0 2,-9 2,-10 -1,0 -1,0 -1,1 z m 558,2 c 0,1 0,2 0,3 0,1 0,0 0,-1 1,-4 1,-6 0,-2 z m 542,2 c 0,2 0,4 -1,6 0,1 0,2 0,2 1,-1 2,-9 1,-10 0,-1 0,0 0,2 z m -274,-1 c 0,6 0,32 1,33 0,1 0,-7 0,-16 0,-9 0,-17 0,-17 -1,-1 -1,-1 -1,0 z m -639,4 c 0,1 -1,3 -1,5 0,3 2,1 3,-4 0,-3 0,-3 -2,-1 z m 446,2 c -1,3 0,7 0,7 2,0 2,-3 2,-6 -1,-3 -1,-3 -2,-1 z m 681,8 c -4,5 -4,6 -1,4 2,-1 3,-3 3,-5 1,-4 1,-4 -2,1 z m -403,0 c 0,5 1,12 2,11 1,-2 1,-7 -1,-10 l -1,-4 z m -1013,5 c -3,7 -3,10 -1,7 2,-3 5,-11 4,-13 0,-1 -1,2 -3,6 z m 588,-4 c -2,3 -2,4 0,2 1,-1 1,-2 1,-3 0,-2 0,-2 -1,1 z m -690,2 c 0,1 1,3 2,5 1,2 2,4 2,3 0,-1 -2,-8 -3,-9 -1,-1 -1,-1 -1,1 z m 471,5 c 0,0 0,1 -1,2 0,1 0,1 1,1 1,-1 1,-2 1,-3 -1,-1 -1,-1 -1,0 z m -89,1 c -1,1 -7,11 -7,13 0,1 5,-5 7,-8 1,-1 2,-3 3,-4 1,-2 0,-3 -3,-1 z m 550,2 c -3,5 -5,8 -9,13 -3,2 -4,5 -4,5 1,0 2,-1 7,-7 3,-3 9,-13 8,-13 0,0 -1,1 -2,2 z m 432,-1 c 1,4 3,8 3,8 1,0 -2,-9 -3,-9 0,0 0,0 0,1 z m -1162,8 c -1,4 0,9 1,10 1,0 1,-4 0,-10 v -4 z m 639,-1 c 1,4 4,10 7,13 2,3 4,4 3,3 0,-1 -1,-2 -2,-3 0,0 -2,-3 -4,-7 -3,-7 -6,-10 -4,-6 z m 451,7 c -1,4 -3,8 -3,9 -1,3 1,0 4,-4 2,-4 4,-12 3,-12 0,0 -2,3 -4,7 z m -276,-1 c -2,4 -2,6 0,6 1,0 2,-2 2,-6 v -4 z m -1074,5 c -6,6 -5,8 2,2 6,-6 7,-7 4,-7 -1,0 -3,2 -6,5 z m 1180,-2 c 1,2 14,14 15,14 0,0 2,1 5,2 6,3 6,3 -1,-1 -6,-3 -9,-6 -15,-13 -3,-3 -6,-4 -4,-2 z m 75,1 c -4,3 -6,5 -5,5 1,0 3,-1 5,-3 5,-4 5,-5 0,-2 z m -527,3 c -4,5 -5,7 -1,4 2,-2 5,-6 4,-7 0,0 -2,1 -3,3 z m -371,1 c 1,2 2,3 2,3 1,1 1,0 0,-2 -1,-1 -3,-2 -3,-3 -1,0 0,1 1,2 z m 162,0 c 0,1 -1,2 -1,2 0,1 0,1 1,1 1,0 2,-3 1,-4 0,0 0,0 -1,1 z m -281,2 c 0,2 0,2 1,2 0,0 1,-4 0,-4 0,0 0,1 -1,2 z m 574,2 c 0,2 0,3 0,3 0,1 1,-1 1,-3 0,-1 1,-3 0,-3 0,0 0,1 -1,3 z m -674,0 c -1,1 -2,2 -1,2 0,0 1,-1 2,-1 2,-3 1,-3 -1,-1 z m 1106,1 c -2,0 -3,1 -3,2 1,0 5,-1 5,-2 2,-2 0,-2 -2,0 z m -284,3 c -2,1 -3,2 -3,2 1,1 5,-1 7,-2 3,-3 0,-2 -4,0 z m -830,1 c -2,1 -4,1 -4,2 1,0 7,-2 7,-3 1,-1 1,-1 -3,1 z m 1106,0 c -2,1 -3,2 -2,2 1,0 5,-2 5,-3 0,0 0,0 -3,1 z m -318,0 c 0,1 2,2 9,5 1,0 3,0 5,0 3,0 2,0 -3,-2 -10,-3 -11,-3 -11,-3 z m -817,3 c 0,1 9,3 14,2 4,-1 5,-1 2,-1 -5,-2 -16,-2 -16,-1 z m 292,0 c -1,0 -5,0 -8,1 -8,0 -5,1 4,2 7,0 8,-1 11,-2 l 4,-2 h -4 c -2,0 -5,0 -7,1 z m 834,0 c -7,1 -9,2 -4,2 3,0 5,0 7,-1 1,-1 2,-2 1,-2 0,0 -2,0 -4,1 z m -997,6 c -1,1 -2,2 -2,2 0,1 0,2 -1,3 -3,3 -6,8 -4,7 3,-2 7,-6 8,-11 1,-3 1,-3 -1,-1 z m 1106,0 c -1,1 -2,4 -3,5 l -2,3 3,-2 c 1,-2 3,-4 3,-5 1,-3 1,-3 -1,-1 z m -277,1 c 0,1 -1,2 -2,4 -1,2 -2,3 -6,8 -2,2 -5,5 -7,8 -1,2 -5,6 -7,8 -6,6 -1,2 7,-6 7,-6 11,-11 11,-13 0,-1 1,-2 3,-4 2,-3 4,-6 3,-6 0,0 -1,0 -2,1 z m -552,1 c -1,1 -2,3 -3,4 -1,2 -2,3 -2,4 -2,1 -10,11 -9,11 1,0 8,-7 10,-11 1,-1 2,-2 2,-3 1,0 4,-6 4,-6 -1,0 -1,1 -2,1 z m 104,10 c 0,8 1,10 2,8 2,-2 2,-5 0,-9 -2,-5 -2,-5 -2,1 z m 717,-1 c -2,3 -3,5 0,3 1,-1 4,-6 3,-6 0,0 -1,2 -3,3 z m 207,2 c -1,1 -2,3 -2,4 -2,2 -2,2 0,2 1,0 4,-4 3,-6 0,-1 0,-1 -1,0 z m -94,0 c -1,1 -1,8 0,7 1,0 1,-1 1,-2 1,-3 0,-6 -1,-5 z m -339,2 c 0,1 0,2 1,3 2,1 2,1 1,-1 -1,-3 -2,-4 -2,-2 z m -1101,1 c 1,2 2,3 2,3 2,1 2,0 -1,-3 l -2,-2 z m 1311,12 c -2,2 -2,3 -1,2 2,0 6,-4 5,-5 0,0 -2,1 -4,3 z m 123,-1 c -1,2 -2,5 -2,5 1,0 4,-5 4,-5 -1,-1 -1,0 -2,0 z m -320,6 c 3,3 4,4 5,4 0,-1 -2,-3 -5,-6 l -3,-2 z m -915,1 c -1,1 -1,2 -1,2 0,0 2,0 3,-1 1,-1 1,-2 1,-3 0,0 -1,1 -3,2 z m 603,4 c 0,0 0,2 0,3 0,1 -1,2 -1,2 -1,1 -1,5 0,5 1,1 1,0 2,-5 0,-6 0,-6 -1,-5 z m -508,2 c 0,2 1,3 4,5 5,2 5,2 3,-1 -3,-2 -7,-5 -7,-4 z m 831,2 c 0,1 1,2 2,2 2,1 2,1 0,-1 -1,-2 -2,-2 -2,-1 z m 388,3 c -2,3 -2,4 0,2 1,0 3,-5 3,-5 0,0 -1,1 -3,3 z m -630,0 c -1,2 0,3 3,3 2,0 2,0 0,-2 -1,-2 -2,-2 -3,-1 z m 539,0 c -2,2 -4,5 -2,5 1,-1 5,-6 4,-6 0,0 -1,1 -2,1 z m -742,7 c -3,5 -4,7 -1,4 2,-3 5,-7 4,-7 0,0 -1,2 -3,3 z m -369,1 c 1,1 4,3 5,3 4,1 4,1 -3,-3 l -5,-3 z m 275,2 c -2,3 0,5 2,2 1,-1 2,-3 2,-3 0,-2 -3,-1 -4,1 z m 411,0 c -3,2 -4,3 -3,3 1,0 8,-3 8,-4 0,-1 0,-1 -5,1 z m -99,2 c 1,1 8,4 8,3 0,-1 -7,-5 -8,-5 -1,0 -1,1 0,2 z m -473,3 -3,1 h 3 c 3,-1 6,-2 4,-2 0,0 -2,0 -4,1 z m 249,1 c -2,3 -1,5 1,2 1,-1 2,-4 1,-4 0,0 -1,1 -2,2 z m 138,-2 c -2,1 -2,2 -1,2 4,2 12,0 9,-2 -1,0 -6,0 -8,0 z m 43,1 h -6 l 4,1 c 3,1 9,1 11,-1 2,-1 -2,-1 -9,0 z m 397,0 c -1,0 -3,1 -4,1 -1,1 -4,1 -6,2 -4,1 -5,1 -3,2 1,0 12,-3 14,-4 1,-1 2,-1 1,-1 0,0 -1,0 -2,0 z m 154,9 c -2,3 -2,5 -1,4 2,-2 3,-5 2,-5 0,0 -1,1 -1,1 z m -4,8 c -1,1 -3,3 -4,4 l -1,3 2,-2 c 2,-3 5,-7 5,-7 -1,0 -2,1 -2,2 z m -739,0 c 0,1 -1,2 -1,4 l -1,1 2,-1 c 1,-1 2,-3 2,-3 -1,-1 -1,-2 -2,-1 z m 829,1 c -2,2 -3,4 -1,3 1,0 3,-3 2,-4 0,0 -1,0 -1,1 z m -925,8 c -1,1 -2,2 -2,4 l -1,2 2,-2 c 2,-3 4,-5 3,-5 -1,0 -2,0 -2,1 z m -21,30 c -1,1 -2,5 -1,5 0,0 1,-1 2,-3 2,-3 1,-5 -1,-2 z m 89,5 c -1,2 -1,2 1,1 1,-1 1,-2 1,-2 0,-1 -1,0 -2,1 z m 825,5 c -4,6 -4,7 -1,4 2,-2 5,-9 4,-9 0,0 -1,2 -3,5 z m -837,13 c -2,2 -3,5 -2,5 1,1 5,-3 5,-5 0,-1 -1,-2 -3,0 z m -92,0 c 0,1 -1,2 -2,3 0,2 3,1 4,-2 0,-2 0,-2 -2,-1 z m 920,1 c -1,2 -2,4 -3,5 -1,1 -2,3 -3,4 l -1,2 2,-2 c 1,-1 2,-3 4,-5 1,-2 3,-6 2,-6 0,0 -1,1 -1,2 z m -97,9 c -3,2 -5,6 -5,7 0,0 2,-2 3,-4 3,-3 4,-5 2,-3 z m -747,14 c 0,1 -1,3 -2,4 -3,5 -3,5 -1,4 2,0 5,-5 5,-8 v -2 z m -9,13 c -2,3 -2,5 0,3 1,-1 2,-2 2,-3 -1,0 -1,0 -2,0 z m 827,4 -2,2 2,-1 c 1,-1 2,-2 2,-3 -1,0 -1,0 -2,2 z m -867,7 c 1,1 3,1 4,0 2,0 1,0 -2,0 -2,0 -3,0 -2,0 z m 842,1 c 2,1 8,1 8,0 0,-1 -2,-1 -5,-1 -3,0 -4,0 -3,1 z"
   id="path3850"
   inkscape:connector-curvature="0"
   style="fill:#bc2a26;stroke:none" />
        <path
   d="m 379,374 c -2,1 -2,635 0,638 1,2 1880,2 1882,0 2,-2 2,-637 0,-638 -3,-2 -1880,-2 -1882,0 z m 9,0 c 2,0 423,0 937,0 513,0 934,0 935,1 1,0 1,637 -1,637 0,0 -423,0 -939,0 -516,0 -939,0 -940,0 -1,0 -1,-636 0,-638 1,0 2,-1 3,0 1,0 3,0 5,0 z m 983,34 c -2,1 -5,3 -6,5 -2,3 -2,4 -4,19 -1,3 -2,10 -3,15 -1,4 -2,11 -2,14 -1,3 -2,10 -3,15 -1,8 -3,16 -8,50 -1,5 -2,11 -2,15 -1,4 -2,10 -2,13 -1,4 -2,9 -3,12 0,4 -1,9 -2,12 -1,10 -4,31 -6,43 -1,5 -2,12 -3,15 0,3 -1,10 -2,16 -1,6 -2,14 -3,17 -1,8 -3,20 -7,38 -1,7 -3,17 -3,21 -1,5 -2,12 -3,17 -1,9 -3,17 -6,36 -1,6 -2,15 -3,19 -4,18 -4,26 1,29 2,2 47,3 63,2 9,-1 14,-5 14,-12 0,-3 1,-3 7,2 3,3 6,5 8,6 2,1 4,2 5,3 6,4 28,9 41,9 23,0 48,-7 66,-19 2,-1 4,-2 4,-2 0,0 3,-2 5,-4 2,-2 7,-5 9,-7 7,-5 11,-9 16,-14 1,-3 4,-6 6,-8 4,-5 5,-6 6,-9 1,-1 2,-3 3,-4 1,0 3,-4 5,-8 2,-4 4,-9 5,-10 1,-1 2,-3 2,-4 0,0 1,-3 2,-5 1,-2 3,-8 5,-12 16,-54 7,-105 -23,-133 -2,-2 -4,-4 -4,-4 -2,-3 -21,-14 -27,-16 -1,0 -3,-1 -5,-1 -7,-4 -29,-5 -47,-4 -14,1 -30,7 -42,14 -1,2 -3,2 -4,2 -1,0 -2,1 -2,2 -3,2 -4,0 -2,-9 1,-5 3,-13 3,-17 0,-4 1,-9 2,-11 0,-2 1,-5 1,-7 1,-1 1,-6 2,-10 0,-4 1,-10 1,-13 1,-2 2,-10 3,-16 1,-6 3,-14 3,-18 1,-3 2,-10 2,-15 1,-5 2,-11 2,-13 1,-2 2,-5 2,-7 1,-6 2,-14 4,-24 2,-13 2,-17 0,-20 -3,-5 -3,-5 -34,-5 -16,0 -30,-1 -32,-1 -1,0 -3,0 -5,1 z m 63,2 c 7,1 8,5 6,17 -1,4 -2,10 -2,14 -1,4 -2,10 -2,13 -1,3 -3,12 -4,19 -2,14 -6,41 -8,53 -1,4 -2,13 -3,19 -1,6 -3,19 -5,28 -4,28 -4,28 7,21 39,-25 91,-23 121,4 47,43 46,125 -2,186 -42,53 -119,69 -159,32 -5,-4 -6,-4 -8,3 -2,10 -2,10 -43,9 -36,0 -35,2 -29,-26 1,-9 3,-21 9,-57 1,-9 3,-20 4,-26 1,-5 3,-20 6,-33 2,-12 4,-26 5,-30 0,-5 2,-15 3,-23 5,-26 7,-41 10,-57 1,-9 3,-21 4,-28 1,-7 4,-20 5,-29 2,-9 4,-23 5,-31 1,-8 4,-22 5,-31 2,-9 4,-21 4,-26 1,-6 2,-11 3,-13 0,-3 3,-7 7,-7 2,-1 53,-1 61,-1 z m -785,35 c -19,4 -28,6 -34,10 -2,1 -6,3 -8,4 -2,1 -6,2 -8,4 -5,3 -8,5 -13,8 -4,2 -20,18 -24,23 -2,3 -5,8 -7,10 -2,3 -5,8 -7,11 -2,4 -4,7 -4,8 -1,0 -2,3 -3,5 -12,27 -13,69 -1,88 8,13 30,33 40,36 1,0 3,1 4,2 1,1 3,3 5,3 1,0 4,2 7,3 2,2 5,3 6,3 2,1 4,1 6,2 4,2 14,7 19,8 3,1 5,3 6,3 1,1 2,2 2,2 7,3 17,11 20,17 5,9 4,31 -2,40 -1,2 -3,5 -4,7 -3,6 -16,18 -18,18 -1,0 -2,1 -4,2 -6,5 -22,7 -30,5 -4,-1 -7,-2 -7,-2 -11,0 -32,-22 -37,-38 -4,-10 -12,-12 -19,-6 -10,9 -12,11 -16,14 -2,1 -5,3 -6,5 -2,1 -4,3 -6,4 -1,1 -5,4 -9,7 -3,3 -6,6 -6,6 -2,0 -5,6 -5,9 0,4 6,17 11,22 1,2 2,3 2,3 0,3 26,29 34,34 28,18 72,21 115,7 7,-2 26,-11 31,-15 2,-1 5,-3 5,-3 1,0 4,-2 7,-5 3,-2 8,-7 10,-9 3,-3 7,-7 9,-9 3,-3 5,-6 5,-6 1,-1 4,-6 7,-10 1,-1 2,-3 2,-3 2,-2 9,-15 9,-16 0,-1 0,-2 0,-2 2,0 8,-19 11,-32 4,-16 5,-41 2,-56 -5,-21 -15,-34 -36,-49 -5,-3 -12,-7 -14,-8 -2,-1 -4,-3 -5,-4 -2,-1 -3,-2 -4,-2 -4,-1 -27,-11 -39,-17 -1,-1 -2,-1 -3,-2 -15,-6 -25,-19 -24,-31 1,-11 13,-26 25,-32 1,-1 2,-2 3,-2 12,-7 37,-6 47,1 6,4 14,11 18,16 4,5 7,6 12,5 3,-1 4,-3 8,-8 1,-2 5,-5 7,-8 25,-28 27,-30 27,-35 0,-6 -6,-13 -16,-19 -3,-3 -9,-6 -11,-8 -3,-1 -5,-3 -6,-3 -1,0 -4,-1 -7,-3 -15,-7 -24,-9 -34,-11 -3,0 -9,-1 -11,-1 -5,-1 -29,-1 -34,0 z m 32,2 c 29,3 66,19 81,35 6,7 5,9 -11,27 -7,8 -15,17 -18,21 -8,10 -11,11 -17,5 -23,-29 -59,-32 -85,-7 -9,9 -12,16 -12,28 0,13 4,19 20,28 6,3 10,6 42,20 47,22 64,45 64,86 0,50 -26,99 -67,125 -45,28 -106,31 -144,7 -17,-11 -38,-36 -44,-52 -3,-6 -1,-9 15,-21 5,-5 13,-11 18,-15 22,-18 22,-18 29,-2 20,48 79,52 103,6 8,-16 8,-38 -1,-49 -5,-7 -20,-16 -43,-25 -57,-24 -78,-48 -77,-90 3,-75 71,-134 147,-127 z m 220,128 c -19,2 -28,3 -35,5 -2,1 -6,3 -10,4 -4,1 -8,3 -9,4 -2,1 -6,3 -10,5 -27,13 -55,42 -65,67 -1,3 -3,7 -5,10 -1,3 -8,24 -10,35 -3,12 -3,39 0,50 7,27 12,36 30,53 13,12 28,23 34,23 0,0 5,1 10,2 28,8 53,8 80,1 14,-3 16,-4 21,-6 2,-1 6,-2 7,-3 11,-4 26,-13 37,-24 3,-2 6,-5 7,-5 0,0 3,-3 6,-7 3,-4 6,-7 7,-7 0,-1 1,-2 2,-4 1,-1 2,-3 3,-4 1,-1 12,-18 12,-19 0,0 1,-2 1,-3 1,-1 3,-4 3,-6 1,-2 2,-4 3,-5 11,-19 14,-77 5,-94 -1,-1 -2,-5 -3,-8 -3,-17 -32,-47 -53,-55 -1,0 -3,-1 -4,-2 0,0 -3,-1 -5,-1 -3,-1 -7,-2 -9,-3 -4,-1 -14,-2 -28,-3 -4,0 -7,-1 -8,-1 -1,0 -7,0 -14,1 z m 829,0 c -21,1 -26,2 -43,8 -9,4 -30,13 -30,14 0,1 0,1 -1,1 -1,0 -8,4 -11,7 -1,2 -6,5 -9,8 -4,3 -8,8 -10,9 -2,2 -5,5 -6,7 -6,7 -18,25 -21,33 -1,2 -3,6 -4,8 -1,2 -2,5 -2,5 0,0 0,2 -1,3 -1,1 -2,5 -3,8 -1,4 -2,8 -2,11 -5,14 -5,43 -1,58 1,3 2,8 3,12 4,21 32,54 51,60 2,0 5,1 6,2 9,5 34,10 53,10 15,0 41,-4 44,-6 0,0 2,-1 3,-1 1,0 4,0 6,-1 3,-1 8,-3 11,-4 17,-5 49,-29 58,-42 1,-1 2,-3 3,-3 0,-1 1,-2 2,-4 1,-2 2,-4 3,-4 1,-1 5,-8 11,-16 1,-3 8,-19 10,-24 1,-3 2,-6 3,-8 0,-2 1,-6 2,-9 0,-4 1,-9 2,-11 5,-26 -1,-65 -13,-81 -1,-2 -2,-3 -2,-3 0,-1 -12,-17 -15,-19 -5,-4 -13,-10 -14,-10 0,0 -3,-2 -7,-4 -6,-4 -11,-6 -23,-9 -17,-5 -25,-6 -53,-5 z m -797,3 c 59,7 97,50 95,108 -5,97 -84,162 -181,148 -70,-10 -105,-72 -83,-148 21,-71 93,-117 169,-108 z m 828,0 c 66,8 103,57 93,125 -9,70 -62,123 -132,132 -92,12 -151,-48 -133,-134 16,-81 90,-133 172,-123 z m -700,4 c -19,1 -21,2 -21,9 0,3 1,8 11,34 9,25 13,35 14,40 0,3 1,6 2,7 1,2 8,18 8,19 0,1 9,29 15,44 2,6 7,19 10,27 3,9 5,16 6,17 4,10 4,10 -13,36 -6,8 -8,10 -12,16 -1,1 -3,5 -5,9 -3,4 -5,7 -6,8 0,2 -2,4 -3,5 -2,1 -3,3 -3,3 0,1 -1,3 -3,6 -2,2 -3,5 -3,5 0,1 -6,9 -11,16 -3,3 -6,9 -8,12 -2,4 -5,9 -7,12 -3,3 -5,6 -5,6 0,1 0,1 -1,2 -1,0 -2,2 -4,5 -2,5 -10,16 -11,17 -3,2 -7,14 -6,17 2,5 3,5 42,5 h 36 l 4,-2 c 1,-2 4,-4 5,-5 0,-2 2,-4 3,-5 1,-1 2,-3 3,-4 0,-1 1,-3 2,-4 0,0 3,-4 5,-8 10,-16 13,-20 14,-21 1,-1 2,-2 2,-3 0,0 2,-3 4,-5 2,-3 5,-9 8,-13 2,-4 6,-10 8,-13 5,-6 12,-17 19,-29 3,-4 8,-11 13,-20 3,-4 7,-10 9,-14 3,-4 7,-11 10,-15 4,-5 8,-11 9,-14 2,-3 6,-10 10,-15 4,-6 8,-11 8,-12 0,-1 2,-3 4,-5 1,-2 3,-4 3,-5 0,-1 11,-17 12,-18 1,0 3,-3 4,-7 2,-3 6,-9 8,-13 3,-3 6,-8 7,-10 2,-2 6,-8 10,-14 3,-5 7,-10 8,-11 0,-1 2,-3 3,-5 1,-2 3,-5 4,-6 0,-2 2,-5 4,-8 8,-11 12,-18 16,-23 1,-2 4,-6 5,-8 1,-1 4,-6 6,-9 2,-3 4,-6 4,-7 0,0 1,-2 2,-4 2,-1 3,-3 3,-3 0,0 1,-2 2,-3 4,-6 4,-13 -2,-15 -6,-2 -73,-1 -78,1 -4,2 -8,8 -13,17 -2,4 -4,8 -5,8 0,1 -2,3 -3,6 -1,2 -4,6 -5,8 -4,5 -6,7 -11,16 -2,3 -5,8 -7,11 -2,3 -4,5 -4,6 0,0 -1,3 -4,6 -3,6 -5,8 -10,17 -1,3 -4,6 -5,8 -2,2 -5,7 -7,10 -3,6 -7,11 -8,11 0,0 -1,-1 -3,-9 -1,-2 -2,-6 -3,-9 -1,-3 -3,-9 -4,-13 -1,-9 -8,-34 -11,-43 -1,-2 -3,-10 -4,-15 -7,-27 -9,-34 -14,-35 -4,-2 -41,-2 -62,-2 z m 828,1 h -17 l -2,2 c -4,4 -3,7 6,31 4,11 8,23 8,25 1,3 3,7 4,10 2,5 5,13 5,17 1,2 2,5 3,7 1,2 3,7 5,12 1,4 3,10 4,12 1,3 3,9 5,15 5,14 6,17 11,30 3,7 5,14 6,17 1,2 3,9 6,15 4,13 4,13 0,19 -1,2 -2,4 -2,4 0,0 -1,2 -2,4 -2,1 -5,6 -8,10 -3,4 -6,8 -7,9 -1,1 -2,3 -2,3 0,2 -5,11 -7,13 -1,1 -2,3 -3,4 -1,2 -2,4 -7,11 -2,3 -3,3 -8,12 -2,4 -6,10 -9,13 -2,4 -6,10 -8,14 -2,4 -5,8 -6,9 -1,1 -5,7 -9,12 -4,6 -9,12 -10,15 -6,7 -12,18 -13,22 -1,9 3,9 49,9 34,0 35,-1 39,-8 2,-3 14,-21 16,-24 1,-1 3,-3 4,-5 1,-2 3,-6 4,-8 2,-2 4,-5 6,-8 1,-2 5,-8 8,-13 3,-4 6,-8 6,-8 0,-1 1,-2 2,-3 1,-2 3,-6 5,-9 2,-3 6,-9 8,-12 2,-3 6,-9 8,-12 2,-4 5,-9 7,-11 1,-2 3,-5 4,-7 2,-1 3,-4 4,-5 1,-1 3,-4 4,-6 1,-1 3,-5 5,-7 1,-2 6,-10 10,-16 5,-7 9,-14 11,-16 1,-3 4,-7 6,-11 3,-3 6,-8 8,-10 1,-3 7,-11 12,-18 4,-7 9,-15 10,-17 1,-2 3,-5 5,-6 1,-2 3,-5 5,-8 1,-3 3,-6 4,-6 1,-1 2,-2 2,-3 0,0 1,-2 3,-5 2,-3 4,-5 4,-6 0,0 0,-1 1,-1 1,-1 2,-2 2,-3 1,-2 9,-15 12,-18 1,-1 4,-6 6,-10 3,-4 7,-11 10,-16 3,-4 8,-11 10,-15 3,-4 6,-10 8,-12 2,-3 5,-6 6,-8 1,-2 2,-4 3,-6 5,-6 7,-13 5,-16 -3,-3 -6,-4 -39,-4 -42,0 -45,0 -49,8 -1,2 -3,5 -4,7 -2,2 -4,5 -5,7 -1,2 -4,6 -6,10 -4,6 -9,13 -15,24 -3,5 -10,15 -11,16 -1,1 -4,6 -6,10 -6,10 -10,17 -16,26 -4,5 -7,10 -11,17 -1,2 -3,3 -3,1 0,0 -1,-3 -1,-6 -1,-3 -2,-6 -2,-8 0,-1 -1,-3 -2,-5 -1,-4 -6,-20 -7,-26 0,-2 -1,-6 -2,-9 -2,-4 -3,-10 -6,-20 0,-1 -1,-6 -3,-11 -1,-4 -2,-9 -3,-10 0,-2 -1,-6 -2,-10 -1,-3 -3,-8 -3,-11 -2,-6 -5,-8 -10,-9 -5,-1 -40,-1 -59,0 z m -566,3 c 3,2 1,8 -5,16 -1,2 -5,7 -7,11 -3,5 -7,11 -10,15 -7,10 -20,30 -25,37 -4,8 -13,21 -21,33 -5,8 -7,10 -23,34 -5,8 -12,19 -16,24 -3,6 -9,14 -12,20 -3,5 -9,14 -13,19 -4,6 -8,13 -10,15 -2,3 -6,10 -11,17 -4,6 -9,14 -12,18 -2,4 -9,14 -14,23 -6,8 -12,17 -14,20 -6,9 -29,44 -36,55 -10,15 -6,13 -47,13 -39,0 -40,0 -40,-5 0,-2 5,-11 26,-43 5,-7 13,-18 17,-25 5,-7 12,-18 17,-25 4,-7 10,-15 13,-19 2,-4 8,-12 12,-18 15,-23 18,-28 19,-31 0,-2 0,-4 -2,-11 -2,-4 -5,-14 -8,-21 -2,-7 -7,-19 -10,-27 -2,-8 -7,-20 -9,-26 -2,-6 -6,-19 -10,-27 -3,-9 -8,-23 -11,-32 -3,-9 -9,-24 -12,-33 -7,-19 -8,-25 -5,-27 3,-2 75,-2 79,0 2,2 3,4 6,12 1,6 5,19 9,34 1,6 3,13 4,16 1,4 2,8 3,11 1,2 3,12 6,20 11,43 8,41 26,12 4,-6 11,-16 15,-23 4,-7 10,-15 11,-18 2,-3 8,-12 13,-19 5,-8 9,-14 9,-15 3,-6 18,-28 20,-29 4,-3 75,-3 78,-1 z m 628,0 c 2,2 4,5 7,15 1,4 2,11 3,14 1,3 5,18 9,33 4,15 9,33 11,39 1,6 4,14 4,17 3,11 5,12 9,4 5,-7 27,-41 29,-46 2,-2 4,-6 6,-8 2,-4 12,-20 26,-41 13,-21 16,-26 19,-27 3,-1 73,-2 76,0 4,2 3,6 -3,14 -2,3 -5,8 -7,11 -6,9 -22,34 -29,45 -8,11 -20,29 -24,36 -12,18 -22,34 -34,52 -8,12 -15,23 -17,25 -1,1 -5,8 -9,13 -3,6 -9,15 -12,20 -3,4 -9,13 -13,19 -4,7 -9,14 -11,17 -6,9 -17,25 -24,37 -23,35 -45,69 -50,76 -4,5 -4,5 -42,5 -19,0 -34,0 -36,0 -7,-2 -6,-5 16,-38 7,-10 15,-22 18,-26 3,-5 8,-13 12,-19 3,-5 8,-12 11,-16 2,-4 6,-9 8,-12 6,-10 23,-35 30,-46 6,-9 6,-10 3,-18 -3,-10 -11,-33 -19,-53 -4,-11 -8,-22 -9,-26 -1,-4 -6,-18 -11,-31 -5,-13 -11,-31 -14,-40 -4,-9 -8,-21 -10,-27 -7,-20 -10,-19 37,-19 33,0 38,0 40,1 z M 895,642 c -38,6 -68,55 -57,93 11,41 56,49 88,15 45,-46 24,-117 -31,-108 z m 548,1 c -44,10 -70,68 -49,105 20,35 68,29 94,-11 30,-50 3,-105 -45,-94 z m 280,-1 c -61,15 -82,102 -31,126 51,23 110,-60 76,-108 -10,-14 -30,-22 -45,-18 z m -805,5 c 14,4 21,12 26,28 6,17 5,25 -1,46 -5,14 -23,34 -37,41 -14,6 -15,7 -23,7 -4,-1 -7,-1 -8,-1 -1,-1 -3,-1 -5,-2 -13,-2 -24,-13 -29,-29 -3,-9 -2,-35 0,-39 1,0 1,-2 2,-4 0,-1 2,-5 3,-8 16,-32 45,-48 72,-39 z m 550,0 c 23,7 36,38 28,66 -2,6 -6,15 -8,17 -1,1 -1,2 -1,2 0,1 -7,11 -9,13 -7,9 -19,18 -26,19 -2,1 -5,2 -7,3 -23,8 -48,-7 -54,-33 -4,-16 0,-42 7,-50 1,-1 3,-4 5,-7 4,-9 14,-20 18,-21 1,0 3,-2 4,-3 10,-8 30,-11 43,-6 z m 274,-1 c 3,1 6,1 7,1 2,0 13,8 13,10 1,1 1,2 2,3 9,9 14,36 10,51 -5,17 -23,44 -30,44 -1,0 -2,1 -3,3 -1,1 -3,2 -4,3 -2,0 -3,1 -3,1 -1,1 -5,3 -6,3 -1,0 -3,1 -4,2 -5,3 -22,2 -29,-1 -3,-1 -6,-3 -6,-3 -2,0 -14,-13 -17,-17 -10,-20 -6,-53 10,-72 3,-3 5,-7 5,-7 0,-3 13,-14 18,-16 2,0 4,-1 4,-1 3,-4 24,-7 33,-4 z"
   id="path3852"
   inkscape:connector-curvature="0"
   style="fill:#d44b48;stroke:none" />
        <path
   d="m 377,370 c -1,1 -2,2 -3,3 0,1 0,145 0,320 0,341 -1,322 3,324 1,0 426,0 944,0 h 941 l 2,-1 c 2,-3 2,2 2,-325 V 372 l -2,-1 c -3,-2 -1883,-3 -1887,-1 z m 1885,3 c 2,1 2,636 1,640 0,0 -1,1 -2,1 -3,2 -1882,1 -1883,-1 -2,-1 -2,-12 -2,-320 l 1,-320 2,-1 c 3,-2 1882,-1 1883,1 z m -891,40 c -2,1 -4,4 -4,8 0,1 -1,6 -2,11 -1,4 -2,13 -3,20 -1,6 -4,23 -6,37 -6,36 -9,54 -12,70 -1,7 -3,17 -3,22 -1,5 -3,13 -3,18 -1,5 -2,9 -2,10 0,0 -1,4 -2,10 0,5 -2,12 -2,15 -1,4 -2,9 -2,13 -1,6 -8,46 -13,78 -6,35 -7,40 -7,44 -1,3 -2,8 -2,13 -3,16 -6,35 -6,38 0,7 -1,7 35,7 37,0 35,0 37,-10 2,-9 3,-9 10,-2 41,38 118,20 160,-36 62,-84 33,-194 -53,-200 -25,-2 -52,5 -71,19 -12,8 -12,10 0,-61 2,-9 4,-21 5,-26 0,-5 2,-14 3,-21 1,-7 3,-18 4,-24 1,-6 2,-15 3,-20 5,-26 5,-30 3,-33 -3,-2 -62,-2 -67,0 z m 63,3 c 3,2 3,5 -1,23 -1,8 -3,19 -4,25 -1,6 -3,18 -4,28 -2,10 -4,19 -4,21 -1,6 -6,42 -11,68 -4,27 -3,30 11,20 28,-20 64,-25 95,-14 70,25 78,135 15,204 -41,44 -112,54 -146,21 -8,-9 -11,-8 -14,4 -1,5 -2,6 -3,7 -4,2 -60,1 -62,0 -2,-2 -1,-10 5,-44 1,-6 3,-17 4,-26 2,-9 4,-23 5,-31 3,-19 7,-43 9,-54 4,-22 6,-36 8,-47 1,-6 2,-14 3,-18 0,-4 1,-11 2,-15 1,-5 3,-15 4,-22 1,-8 4,-23 6,-34 1,-11 4,-27 5,-36 2,-9 3,-17 4,-19 0,-2 1,-10 2,-17 1,-7 2,-14 3,-15 0,0 1,-6 2,-12 2,-13 2,-15 5,-17 3,-2 58,-2 61,0 z m -782,33 c -56,6 -107,55 -115,112 -7,49 13,76 75,101 41,17 51,27 51,51 -1,11 -3,18 -8,28 -27,47 -88,39 -107,-14 -3,-9 -3,-9 -33,15 -30,24 -28,22 -18,37 28,47 68,64 125,55 68,-10 119,-69 121,-140 1,-26 -3,-41 -17,-57 -12,-14 -23,-21 -65,-40 -39,-18 -48,-28 -43,-49 9,-40 68,-51 96,-18 9,10 8,11 32,-17 20,-24 19,-22 17,-27 -12,-22 -70,-41 -111,-37 z m 37,4 c 24,4 49,15 64,28 10,8 10,8 -5,25 -4,5 -10,12 -14,17 -11,12 -11,12 -19,4 -32,-37 -101,-17 -101,29 0,17 9,26 43,42 39,18 42,20 53,28 36,27 41,79 12,134 -39,74 -146,99 -201,46 -14,-14 -29,-35 -27,-41 1,-3 37,-33 45,-38 l 3,-2 2,2 c 1,1 2,2 2,3 4,13 17,29 31,38 37,21 86,-8 89,-52 1,-26 -10,-39 -51,-56 -60,-24 -81,-49 -76,-93 8,-74 77,-126 150,-114 z m 1039,126 c -76,5 -136,67 -140,144 -5,83 67,131 159,105 63,-18 107,-79 107,-145 0,-60 -39,-100 -101,-105 -12,0 -13,0 -25,1 z m -844,2 c -65,13 -112,61 -123,125 -13,81 39,135 125,128 71,-6 127,-58 138,-128 9,-57 -15,-102 -63,-120 -20,-8 -54,-10 -77,-5 z m 54,2 c 64,11 96,61 82,128 -8,43 -32,78 -69,100 -39,23 -93,27 -134,10 -60,-25 -73,-113 -25,-180 20,-28 51,-48 90,-57 15,-3 41,-4 56,-1 z m 823,-1 c 64,9 98,56 89,120 -10,69 -59,118 -126,128 -71,10 -126,-24 -132,-83 -11,-97 72,-178 169,-165 z m -713,4 c -6,1 -6,2 4,30 4,11 9,26 12,32 5,16 13,38 17,48 2,5 5,14 7,20 5,14 21,59 24,66 2,8 4,5 -23,45 -4,6 -8,13 -10,15 -2,3 -6,10 -10,16 -4,6 -12,17 -17,25 -5,8 -12,18 -15,24 -17,25 -28,42 -28,44 0,4 1,4 39,4 41,-1 36,1 44,-12 8,-13 13,-19 28,-42 2,-3 4,-7 6,-9 1,-2 3,-6 4,-7 2,-2 5,-8 9,-13 3,-5 7,-11 9,-13 1,-3 6,-10 10,-17 4,-6 11,-16 14,-21 4,-5 11,-16 16,-24 6,-9 12,-19 15,-23 3,-4 8,-11 11,-17 21,-32 31,-46 38,-58 3,-3 7,-10 11,-16 3,-5 8,-13 10,-16 2,-3 9,-13 15,-22 5,-9 13,-20 16,-24 3,-5 7,-11 9,-14 1,-2 3,-6 4,-7 11,-14 10,-14 -35,-14 h -34 l -3,3 c -1,1 -4,4 -5,7 -3,3 -10,14 -32,50 -1,2 -7,10 -12,18 -5,8 -13,21 -18,28 -19,32 -17,32 -26,-1 -3,-10 -6,-22 -7,-25 -2,-7 -9,-33 -15,-57 -5,-20 -6,-22 -11,-23 -4,0 -67,0 -71,0 z m 828,0 c -6,2 -6,2 23,84 4,11 10,26 12,33 3,7 6,17 8,21 1,5 4,13 6,19 2,6 7,17 10,26 7,20 7,21 1,30 -14,22 -32,49 -38,58 -4,5 -9,12 -11,15 -4,6 -20,30 -24,38 -2,2 -7,9 -11,15 -15,22 -16,25 -14,28 1,2 70,3 74,0 2,-1 6,-6 27,-39 7,-10 14,-22 16,-25 3,-3 7,-10 10,-14 6,-10 22,-33 25,-39 2,-2 8,-11 13,-19 5,-8 12,-18 14,-22 3,-3 6,-8 7,-10 1,-2 7,-11 13,-20 6,-9 13,-20 16,-24 2,-4 7,-11 10,-15 3,-5 7,-12 10,-16 3,-4 7,-11 10,-14 2,-4 7,-12 11,-18 11,-16 16,-24 22,-33 3,-5 7,-10 8,-13 10,-15 18,-27 21,-32 6,-8 7,-10 5,-12 -3,-2 -72,-3 -76,0 -2,1 -10,14 -18,27 -2,2 -8,12 -14,21 -5,9 -18,29 -28,45 -28,45 -25,43 -32,16 -3,-9 -6,-22 -8,-30 -2,-7 -6,-22 -9,-33 -3,-10 -6,-20 -6,-21 -1,-1 -2,-6 -3,-10 -2,-12 -4,-15 -8,-16 -3,-1 -69,-1 -72,-1 z m -756,3 c 1,1 1,2 2,3 1,2 7,25 26,97 9,30 9,31 14,31 2,0 3,-2 12,-15 10,-16 21,-33 23,-36 1,-1 5,-8 8,-14 4,-6 11,-16 15,-23 4,-6 11,-16 15,-23 10,-16 11,-18 13,-19 2,-1 61,-2 67,-1 6,1 5,2 -13,30 -2,3 -7,10 -11,15 -3,6 -8,13 -10,16 -4,7 -9,13 -20,30 -3,6 -8,13 -10,16 -3,4 -7,10 -9,14 -3,4 -8,11 -11,17 -4,5 -8,12 -10,15 -3,4 -8,12 -12,18 -4,6 -8,12 -8,13 -1,1 -5,6 -9,13 -4,6 -10,15 -14,21 -4,6 -11,17 -16,25 -5,7 -11,16 -13,19 -1,2 -5,7 -7,11 -3,4 -10,16 -17,26 -7,11 -15,23 -19,28 -3,5 -9,14 -12,20 -4,5 -8,11 -10,13 l -2,2 -12,1 c -17,1 -55,0 -56,-1 -2,-1 -1,-4 4,-10 2,-4 5,-8 6,-10 2,-3 7,-11 12,-18 11,-17 17,-26 22,-34 2,-3 8,-12 12,-18 5,-7 10,-14 11,-17 2,-3 6,-9 10,-15 18,-26 24,-36 24,-39 1,-3 0,-6 -10,-34 -4,-11 -10,-29 -14,-40 -4,-11 -10,-28 -14,-39 -4,-10 -9,-24 -11,-30 -2,-7 -7,-19 -10,-28 -11,-30 -11,-29 -5,-30 5,-1 68,0 69,0 z m 829,1 c 1,1 3,7 5,15 2,7 5,18 6,23 2,6 6,21 9,34 18,66 18,66 28,51 4,-7 30,-48 40,-63 3,-5 9,-14 12,-20 4,-5 8,-13 10,-16 9,-15 17,-25 20,-25 8,-1 65,0 67,1 2,2 2,1 -8,16 -4,5 -10,15 -14,21 -20,30 -44,68 -47,72 -2,3 -6,9 -9,14 -3,5 -8,12 -11,16 -3,5 -7,11 -10,15 -2,4 -7,12 -11,17 -3,5 -9,14 -13,20 -4,6 -9,14 -11,16 -1,3 -6,11 -11,17 -4,7 -10,16 -14,22 -4,6 -10,15 -14,21 -4,6 -9,14 -11,17 -3,4 -9,15 -15,23 -12,18 -19,30 -22,33 -1,1 -4,6 -7,11 -5,7 -7,9 -9,10 -5,2 -66,1 -67,0 -2,-2 3,-10 19,-34 6,-8 11,-17 13,-20 2,-3 7,-10 10,-15 4,-6 9,-14 13,-19 3,-5 8,-13 11,-17 3,-5 8,-11 10,-14 2,-4 7,-12 11,-18 18,-25 17,-23 9,-45 -3,-8 -8,-21 -11,-29 -2,-8 -6,-17 -7,-21 -2,-4 -5,-13 -8,-21 -2,-8 -8,-23 -11,-34 -4,-10 -8,-21 -9,-24 -1,-3 -6,-15 -10,-26 -7,-22 -8,-24 -4,-25 6,-1 69,0 71,1 z M 896,638 c -68,11 -91,118 -28,136 41,11 86,-30 86,-80 0,-37 -24,-61 -58,-56 z m 553,-1 c -59,10 -89,85 -50,126 18,19 55,16 78,-6 36,-35 38,-93 3,-113 -9,-5 -23,-8 -31,-7 z m 275,1 c -40,6 -72,51 -64,93 8,46 57,59 93,27 52,-47 32,-129 -29,-120 z m -809,3 c 38,8 49,64 21,101 -39,51 -102,36 -102,-23 0,-47 41,-86 81,-78 z m 549,0 c 25,4 42,31 38,61 -8,63 -80,95 -109,48 -29,-46 18,-117 71,-109 z m 278,0 c 34,5 49,54 28,91 -34,60 -108,52 -108,-13 0,-46 39,-84 80,-78 z"
   id="path3854"
   inkscape:connector-curvature="0"
   style="fill:#ec8c94;stroke:none" />
       </g>
      </g>
     </g>
    </g>
   </g>
  </g>
 </g>
</svg>